@startuml diagramaContextoGuiasDocentes


state "MENU_PRINCIPAL" as MenuPrincipal
state "REVISAR_CONTENIDO" as RevisarContenido
state "APROBAR_CONTENIDO" as AprobarContenido
state "PUBLICAR_GUIA" as PublicarGuia

[*] ----> MenuPrincipal
    note on link
        Director de Grado inicia sessión
    end note

MenuPrincipal --> [*]
    note on link
        Director de Grado cierra sesión
    end note

MenuPrincipal ----> RevisarContenido
    note on link
        Accede a revisar contenido
    end note

RevisarContenido ----> AprobarContenido
    note on link
        Aprobar o rechazar contenido
    end note

AprobarContenido ----> MenuPrincipal
    note on link
        Confirmar aprobación o rechazo
    end note

MenuPrincipal ----> PublicarGuia
    note on link
        Accede a publicar guía docente
    end note

PublicarGuia ----> MenuPrincipal
    note on link
        Confirmar publicación
    end note


@enduml